<mxfile host="app.diagrams.net" modified="2023-04-27T17:09:08.579Z" agent="Mozilla/5.0 (Windows NT 10.0; Win64; x64) AppleWebKit/537.36 (KHTML, like Gecko) Chrome/112.0.0.0 Safari/537.36 Edg/112.0.1722.58" etag="DTwEzE_ONtEl8I9_FbyJ" version="21.2.3" type="github">
  <diagram id="prtHgNgQTEPvFCAcTncT" name="Page-1">
    <mxGraphModel dx="1564" dy="508" grid="1" gridSize="10" guides="1" tooltips="1" connect="1" arrows="1" fold="1" page="1" pageScale="1" pageWidth="827" pageHeight="1169" math="0" shadow="0">
      <root>
        <mxCell id="0" />
        <mxCell id="1" parent="0" />
        <mxCell id="QBrUMATzq_8TdFM6rITS-1" style="edgeStyle=orthogonalEdgeStyle;rounded=0;orthogonalLoop=1;jettySize=auto;html=1;exitX=1;exitY=0.5;exitDx=0;exitDy=0;entryX=0;entryY=0.5;entryDx=0;entryDy=0;" edge="1" parent="1" source="QBrUMATzq_8TdFM6rITS-4" target="QBrUMATzq_8TdFM6rITS-6">
          <mxGeometry relative="1" as="geometry" />
        </mxCell>
        <mxCell id="QBrUMATzq_8TdFM6rITS-2" style="edgeStyle=orthogonalEdgeStyle;rounded=0;orthogonalLoop=1;jettySize=auto;html=1;exitX=1;exitY=0.5;exitDx=0;exitDy=0;entryX=0;entryY=0.5;entryDx=0;entryDy=0;" edge="1" parent="1" source="QBrUMATzq_8TdFM6rITS-4" target="QBrUMATzq_8TdFM6rITS-7">
          <mxGeometry relative="1" as="geometry" />
        </mxCell>
        <mxCell id="QBrUMATzq_8TdFM6rITS-3" style="edgeStyle=orthogonalEdgeStyle;rounded=0;orthogonalLoop=1;jettySize=auto;html=1;exitX=1;exitY=0.5;exitDx=0;exitDy=0;entryX=0;entryY=0.5;entryDx=0;entryDy=0;" edge="1" parent="1" source="QBrUMATzq_8TdFM6rITS-4" target="QBrUMATzq_8TdFM6rITS-8">
          <mxGeometry relative="1" as="geometry" />
        </mxCell>
        <mxCell id="QBrUMATzq_8TdFM6rITS-4" value="&lt;span style=&quot;font-size: 14px;&quot;&gt;Content Model&lt;/span&gt;" style="whiteSpace=wrap;html=1;" vertex="1" parent="1">
          <mxGeometry x="120" y="260" width="90" height="40" as="geometry" />
        </mxCell>
        <mxCell id="QBrUMATzq_8TdFM6rITS-5" value="Home" style="whiteSpace=wrap;html=1;" vertex="1" parent="1">
          <mxGeometry x="250" y="160" width="100" height="40" as="geometry" />
        </mxCell>
        <mxCell id="QBrUMATzq_8TdFM6rITS-6" value="Generate" style="whiteSpace=wrap;html=1;" vertex="1" parent="1">
          <mxGeometry x="250" y="210" width="100" height="40" as="geometry" />
        </mxCell>
        <mxCell id="QBrUMATzq_8TdFM6rITS-7" value="Introduction" style="whiteSpace=wrap;html=1;" vertex="1" parent="1">
          <mxGeometry x="250" y="260" width="100" height="40" as="geometry" />
        </mxCell>
        <mxCell id="QBrUMATzq_8TdFM6rITS-8" value="Publish" style="whiteSpace=wrap;html=1;" vertex="1" parent="1">
          <mxGeometry x="250" y="310" width="100" height="40" as="geometry" />
        </mxCell>
        <mxCell id="QBrUMATzq_8TdFM6rITS-9" value="User" style="whiteSpace=wrap;html=1;" vertex="1" parent="1">
          <mxGeometry x="250" y="360" width="100" height="40" as="geometry" />
        </mxCell>
        <mxCell id="QBrUMATzq_8TdFM6rITS-10" value="Pictures" style="whiteSpace=wrap;html=1;rounded=1;arcSize=50;align=center;verticalAlign=middle;strokeWidth=1;autosize=1;spacing=4;treeFolding=1;treeMoving=1;newEdgeStyle={&quot;edgeStyle&quot;:&quot;entityRelationEdgeStyle&quot;,&quot;startArrow&quot;:&quot;none&quot;,&quot;endArrow&quot;:&quot;none&quot;,&quot;segment&quot;:10,&quot;curved&quot;:1,&quot;sourcePerimeterSpacing&quot;:0,&quot;targetPerimeterSpacing&quot;:0};fillColor=#dae8fc;strokeColor=#6c8ebf;" vertex="1" collapsed="1" parent="1">
          <mxGeometry x="380" y="140" width="60" height="20" as="geometry" />
        </mxCell>
        <mxCell id="QBrUMATzq_8TdFM6rITS-11" value="" style="edgeStyle=entityRelationEdgeStyle;startArrow=none;endArrow=none;segment=10;curved=1;sourcePerimeterSpacing=0;targetPerimeterSpacing=0;rounded=0;" edge="1" parent="1" target="QBrUMATzq_8TdFM6rITS-10">
          <mxGeometry relative="1" as="geometry">
            <mxPoint x="349" y="182" as="sourcePoint" />
          </mxGeometry>
        </mxCell>
        <mxCell id="QBrUMATzq_8TdFM6rITS-12" value="display" style="shape=step;perimeter=stepPerimeter;fixedSize=1;points=[];whiteSpace=wrap;html=1;" vertex="1" parent="1">
          <mxGeometry x="450" y="141.5" width="100" height="17" as="geometry" />
        </mxCell>
        <mxCell id="QBrUMATzq_8TdFM6rITS-13" value="like" style="shape=step;perimeter=stepPerimeter;fixedSize=1;points=[];whiteSpace=wrap;html=1;fillColor=#d5e8d4;strokeColor=#82b366;" vertex="1" parent="1">
          <mxGeometry x="538" y="141.5" width="100" height="17" as="geometry" />
        </mxCell>
        <mxCell id="QBrUMATzq_8TdFM6rITS-14" value="download" style="shape=step;perimeter=stepPerimeter;fixedSize=1;points=[];whiteSpace=wrap;html=1;" vertex="1" parent="1">
          <mxGeometry x="626" y="141.5" width="100" height="17" as="geometry" />
        </mxCell>
        <mxCell id="QBrUMATzq_8TdFM6rITS-15" style="edgeStyle=entityRelationEdgeStyle;rounded=0;orthogonalLoop=1;jettySize=auto;html=1;startArrow=none;endArrow=none;segment=10;curved=1;sourcePerimeterSpacing=0;targetPerimeterSpacing=0;exitX=1;exitY=0.5;exitDx=0;exitDy=0;entryX=0;entryY=0;entryDx=11.083333333333332;entryDy=15.666666666666666;entryPerimeter=0;" edge="1" parent="1" source="QBrUMATzq_8TdFM6rITS-16" target="QBrUMATzq_8TdFM6rITS-24">
          <mxGeometry relative="1" as="geometry" />
        </mxCell>
        <mxCell id="QBrUMATzq_8TdFM6rITS-16" value="&lt;p class=&quot;MsoNormal&quot;&gt;Noun Substitution&lt;/p&gt;" style="whiteSpace=wrap;html=1;rounded=1;arcSize=50;align=center;verticalAlign=middle;strokeWidth=1;autosize=1;spacing=4;treeFolding=1;treeMoving=1;newEdgeStyle={&quot;edgeStyle&quot;:&quot;entityRelationEdgeStyle&quot;,&quot;startArrow&quot;:&quot;none&quot;,&quot;endArrow&quot;:&quot;none&quot;,&quot;segment&quot;:10,&quot;curved&quot;:1,&quot;sourcePerimeterSpacing&quot;:0,&quot;targetPerimeterSpacing&quot;:0};fillColor=#ffe6cc;strokeColor=#d79b00;fillStyle=auto;" vertex="1" collapsed="1" parent="1">
          <mxGeometry x="380" y="186" width="140" height="20" as="geometry" />
        </mxCell>
        <mxCell id="QBrUMATzq_8TdFM6rITS-17" value="" style="edgeStyle=entityRelationEdgeStyle;startArrow=none;endArrow=none;segment=10;curved=1;sourcePerimeterSpacing=0;targetPerimeterSpacing=0;rounded=0;" edge="1" parent="1" target="QBrUMATzq_8TdFM6rITS-16">
          <mxGeometry relative="1" as="geometry">
            <mxPoint x="349" y="232" as="sourcePoint" />
          </mxGeometry>
        </mxCell>
        <mxCell id="QBrUMATzq_8TdFM6rITS-18" style="edgeStyle=entityRelationEdgeStyle;rounded=0;orthogonalLoop=1;jettySize=auto;html=1;startArrow=none;endArrow=none;segment=10;curved=1;sourcePerimeterSpacing=0;targetPerimeterSpacing=0;exitX=1;exitY=0.5;exitDx=0;exitDy=0;" edge="1" parent="1" source="QBrUMATzq_8TdFM6rITS-19">
          <mxGeometry relative="1" as="geometry">
            <mxPoint x="610" y="210" as="targetPoint" />
          </mxGeometry>
        </mxCell>
        <mxCell id="QBrUMATzq_8TdFM6rITS-19" value="&lt;p class=&quot;MsoNormal&quot;&gt;Modify Style&lt;/p&gt;" style="whiteSpace=wrap;html=1;rounded=1;arcSize=50;align=center;verticalAlign=middle;strokeWidth=1;autosize=1;spacing=4;treeFolding=1;treeMoving=1;newEdgeStyle={&quot;edgeStyle&quot;:&quot;entityRelationEdgeStyle&quot;,&quot;startArrow&quot;:&quot;none&quot;,&quot;endArrow&quot;:&quot;none&quot;,&quot;segment&quot;:10,&quot;curved&quot;:1,&quot;sourcePerimeterSpacing&quot;:0,&quot;targetPerimeterSpacing&quot;:0};fillColor=#ffe6cc;strokeColor=#d79b00;" vertex="1" collapsed="1" parent="1">
          <mxGeometry x="380" y="216" width="110" height="20" as="geometry" />
        </mxCell>
        <mxCell id="QBrUMATzq_8TdFM6rITS-20" value="" style="edgeStyle=entityRelationEdgeStyle;startArrow=none;endArrow=none;segment=10;curved=1;sourcePerimeterSpacing=0;targetPerimeterSpacing=0;rounded=0;exitX=1;exitY=0.5;exitDx=0;exitDy=0;" edge="1" parent="1" target="QBrUMATzq_8TdFM6rITS-19">
          <mxGeometry relative="1" as="geometry">
            <mxPoint x="349" y="232" as="sourcePoint" />
          </mxGeometry>
        </mxCell>
        <mxCell id="QBrUMATzq_8TdFM6rITS-21" style="edgeStyle=entityRelationEdgeStyle;rounded=0;orthogonalLoop=1;jettySize=auto;html=1;startArrow=none;endArrow=none;segment=10;curved=1;sourcePerimeterSpacing=0;targetPerimeterSpacing=0;exitX=1;exitY=0.5;exitDx=0;exitDy=0;entryX=0;entryY=0;entryDx=11.083333333333332;entryDy=15.666666666666666;entryPerimeter=0;" edge="1" parent="1" source="QBrUMATzq_8TdFM6rITS-22" target="QBrUMATzq_8TdFM6rITS-24">
          <mxGeometry relative="1" as="geometry" />
        </mxCell>
        <mxCell id="QBrUMATzq_8TdFM6rITS-22" value="&lt;p class=&quot;MsoNormal&quot;&gt;Semantic Degree&lt;/p&gt;" style="whiteSpace=wrap;html=1;rounded=1;arcSize=50;align=center;verticalAlign=middle;strokeWidth=1;autosize=1;spacing=4;treeFolding=1;treeMoving=1;newEdgeStyle={&quot;edgeStyle&quot;:&quot;entityRelationEdgeStyle&quot;,&quot;startArrow&quot;:&quot;none&quot;,&quot;endArrow&quot;:&quot;none&quot;,&quot;segment&quot;:10,&quot;curved&quot;:1,&quot;sourcePerimeterSpacing&quot;:0,&quot;targetPerimeterSpacing&quot;:0};fillColor=#ffe6cc;strokeColor=#d79b00;" vertex="1" collapsed="1" parent="1">
          <mxGeometry x="380" y="245" width="140" height="20" as="geometry" />
        </mxCell>
        <mxCell id="QBrUMATzq_8TdFM6rITS-23" value="" style="edgeStyle=entityRelationEdgeStyle;startArrow=none;endArrow=none;segment=10;curved=1;sourcePerimeterSpacing=0;targetPerimeterSpacing=0;rounded=0;" edge="1" parent="1" target="QBrUMATzq_8TdFM6rITS-22">
          <mxGeometry relative="1" as="geometry">
            <mxPoint x="350" y="230" as="sourcePoint" />
          </mxGeometry>
        </mxCell>
        <mxCell id="QBrUMATzq_8TdFM6rITS-24" value="" style="shape=singleArrow;direction=south;whiteSpace=wrap;html=1;arrowWidth=0.5666666666666667;arrowSize=0.2611111111111111;fillColor=#d5e8d4;strokeColor=#82b366;" vertex="1" parent="1">
          <mxGeometry x="606" y="200" width="20" height="30" as="geometry" />
        </mxCell>
        <mxCell id="QBrUMATzq_8TdFM6rITS-25" value="Download" style="text;html=1;strokeColor=none;fillColor=none;align=center;verticalAlign=middle;whiteSpace=wrap;rounded=0;" vertex="1" parent="1">
          <mxGeometry x="626" y="200" width="60" height="30" as="geometry" />
        </mxCell>
        <mxCell id="QBrUMATzq_8TdFM6rITS-26" value="Guide" style="whiteSpace=wrap;html=1;rounded=1;arcSize=50;align=center;verticalAlign=middle;strokeWidth=1;autosize=1;spacing=4;treeFolding=1;treeMoving=1;newEdgeStyle={&quot;edgeStyle&quot;:&quot;entityRelationEdgeStyle&quot;,&quot;startArrow&quot;:&quot;none&quot;,&quot;endArrow&quot;:&quot;none&quot;,&quot;segment&quot;:10,&quot;curved&quot;:1,&quot;sourcePerimeterSpacing&quot;:0,&quot;targetPerimeterSpacing&quot;:0};fillColor=#e1d5e7;strokeColor=#9673a6;" vertex="1" collapsed="1" parent="1">
          <mxGeometry x="380" y="270" width="80" height="20" as="geometry" />
        </mxCell>
        <mxCell id="QBrUMATzq_8TdFM6rITS-27" value="" style="edgeStyle=entityRelationEdgeStyle;startArrow=none;endArrow=none;segment=10;curved=1;sourcePerimeterSpacing=0;targetPerimeterSpacing=0;rounded=0;exitX=1;exitY=0.5;exitDx=0;exitDy=0;" edge="1" parent="1" source="QBrUMATzq_8TdFM6rITS-7" target="QBrUMATzq_8TdFM6rITS-26">
          <mxGeometry relative="1" as="geometry">
            <mxPoint x="350" y="310" as="sourcePoint" />
          </mxGeometry>
        </mxCell>
        <mxCell id="QBrUMATzq_8TdFM6rITS-28" value="Game" style="whiteSpace=wrap;html=1;rounded=1;arcSize=50;align=center;verticalAlign=middle;strokeWidth=1;autosize=1;spacing=4;treeFolding=1;treeMoving=1;newEdgeStyle={&quot;edgeStyle&quot;:&quot;entityRelationEdgeStyle&quot;,&quot;startArrow&quot;:&quot;none&quot;,&quot;endArrow&quot;:&quot;none&quot;,&quot;segment&quot;:10,&quot;curved&quot;:1,&quot;sourcePerimeterSpacing&quot;:0,&quot;targetPerimeterSpacing&quot;:0};fillColor=#e1d5e7;strokeColor=#9673a6;" vertex="1" collapsed="1" parent="1">
          <mxGeometry x="379" y="295" width="80" height="20" as="geometry" />
        </mxCell>
        <mxCell id="QBrUMATzq_8TdFM6rITS-29" value="" style="edgeStyle=entityRelationEdgeStyle;startArrow=none;endArrow=none;segment=10;curved=1;sourcePerimeterSpacing=0;targetPerimeterSpacing=0;rounded=0;" edge="1" parent="1" target="QBrUMATzq_8TdFM6rITS-28">
          <mxGeometry relative="1" as="geometry">
            <mxPoint x="350" y="280" as="sourcePoint" />
          </mxGeometry>
        </mxCell>
        <mxCell id="QBrUMATzq_8TdFM6rITS-30" style="edgeStyle=orthogonalEdgeStyle;rounded=0;orthogonalLoop=1;jettySize=auto;html=1;exitX=1;exitY=0.5;exitDx=0;exitDy=0;entryX=0;entryY=0.5;entryDx=0;entryDy=0;" edge="1" parent="1" source="QBrUMATzq_8TdFM6rITS-31" target="QBrUMATzq_8TdFM6rITS-5">
          <mxGeometry relative="1" as="geometry" />
        </mxCell>
        <mxCell id="QBrUMATzq_8TdFM6rITS-31" value="&lt;span style=&quot;font-size: 14px;&quot;&gt;Social&lt;br&gt;&amp;nbsp;Model&lt;/span&gt;" style="whiteSpace=wrap;html=1;" vertex="1" parent="1">
          <mxGeometry x="120" y="160" width="90" height="40" as="geometry" />
        </mxCell>
        <mxCell id="QBrUMATzq_8TdFM6rITS-32" style="edgeStyle=orthogonalEdgeStyle;rounded=0;orthogonalLoop=1;jettySize=auto;html=1;exitX=1;exitY=0.5;exitDx=0;exitDy=0;" edge="1" parent="1" source="QBrUMATzq_8TdFM6rITS-33" target="QBrUMATzq_8TdFM6rITS-9">
          <mxGeometry relative="1" as="geometry" />
        </mxCell>
        <mxCell id="QBrUMATzq_8TdFM6rITS-33" value="&lt;span style=&quot;font-size: 14px;&quot;&gt;User&lt;br&gt;&amp;nbsp;Model&lt;/span&gt;" style="whiteSpace=wrap;html=1;" vertex="1" parent="1">
          <mxGeometry x="120" y="360" width="90" height="40" as="geometry" />
        </mxCell>
        <mxCell id="QBrUMATzq_8TdFM6rITS-34" style="edgeStyle=orthogonalEdgeStyle;rounded=0;orthogonalLoop=1;jettySize=auto;html=1;exitX=1;exitY=0.5;exitDx=0;exitDy=0;entryX=0;entryY=0.5;entryDx=0;entryDy=0;" edge="1" parent="1" source="QBrUMATzq_8TdFM6rITS-37" target="QBrUMATzq_8TdFM6rITS-31">
          <mxGeometry relative="1" as="geometry" />
        </mxCell>
        <mxCell id="QBrUMATzq_8TdFM6rITS-35" style="edgeStyle=orthogonalEdgeStyle;rounded=0;orthogonalLoop=1;jettySize=auto;html=1;exitX=1;exitY=0.5;exitDx=0;exitDy=0;entryX=0;entryY=0.5;entryDx=0;entryDy=0;" edge="1" parent="1" source="QBrUMATzq_8TdFM6rITS-37" target="QBrUMATzq_8TdFM6rITS-4">
          <mxGeometry relative="1" as="geometry" />
        </mxCell>
        <mxCell id="QBrUMATzq_8TdFM6rITS-36" style="edgeStyle=orthogonalEdgeStyle;rounded=0;orthogonalLoop=1;jettySize=auto;html=1;exitX=1;exitY=0.5;exitDx=0;exitDy=0;entryX=0;entryY=0.5;entryDx=0;entryDy=0;" edge="1" parent="1" source="QBrUMATzq_8TdFM6rITS-37" target="QBrUMATzq_8TdFM6rITS-33">
          <mxGeometry relative="1" as="geometry" />
        </mxCell>
        <mxCell id="QBrUMATzq_8TdFM6rITS-37" value="&lt;span style=&quot;font-size: 14px;&quot;&gt;Functions&lt;/span&gt;" style="whiteSpace=wrap;html=1;" vertex="1" parent="1">
          <mxGeometry x="-15" y="260" width="90" height="40" as="geometry" />
        </mxCell>
        <mxCell id="QBrUMATzq_8TdFM6rITS-38" value="Pictures &amp;amp; description" style="whiteSpace=wrap;html=1;rounded=1;arcSize=50;align=center;verticalAlign=middle;strokeWidth=1;autosize=1;spacing=4;treeFolding=1;treeMoving=1;newEdgeStyle={&quot;edgeStyle&quot;:&quot;entityRelationEdgeStyle&quot;,&quot;startArrow&quot;:&quot;none&quot;,&quot;endArrow&quot;:&quot;none&quot;,&quot;segment&quot;:10,&quot;curved&quot;:1,&quot;sourcePerimeterSpacing&quot;:0,&quot;targetPerimeterSpacing&quot;:0};fillColor=#fff2cc;strokeColor=#d6b656;" vertex="1" collapsed="1" parent="1">
          <mxGeometry x="380" y="320" width="140" height="20" as="geometry" />
        </mxCell>
        <mxCell id="QBrUMATzq_8TdFM6rITS-39" value="" style="edgeStyle=entityRelationEdgeStyle;startArrow=none;endArrow=none;segment=10;curved=1;sourcePerimeterSpacing=0;targetPerimeterSpacing=0;rounded=0;exitX=1;exitY=0.5;exitDx=0;exitDy=0;" edge="1" parent="1" source="QBrUMATzq_8TdFM6rITS-8" target="QBrUMATzq_8TdFM6rITS-38">
          <mxGeometry relative="1" as="geometry">
            <mxPoint x="350" y="372" as="sourcePoint" />
          </mxGeometry>
        </mxCell>
        <mxCell id="QBrUMATzq_8TdFM6rITS-40" style="edgeStyle=entityRelationEdgeStyle;rounded=0;orthogonalLoop=1;jettySize=auto;html=1;startArrow=none;endArrow=none;segment=10;curved=1;sourcePerimeterSpacing=0;targetPerimeterSpacing=0;exitX=1;exitY=0.5;exitDx=0;exitDy=0;entryX=0;entryY=0.5;entryDx=0;entryDy=0;" edge="1" parent="1" source="QBrUMATzq_8TdFM6rITS-41" target="QBrUMATzq_8TdFM6rITS-47">
          <mxGeometry relative="1" as="geometry" />
        </mxCell>
        <mxCell id="QBrUMATzq_8TdFM6rITS-41" value="User Information" style="whiteSpace=wrap;html=1;rounded=1;arcSize=50;align=center;verticalAlign=middle;strokeWidth=1;autosize=1;spacing=4;treeFolding=1;treeMoving=1;newEdgeStyle={&quot;edgeStyle&quot;:&quot;entityRelationEdgeStyle&quot;,&quot;startArrow&quot;:&quot;none&quot;,&quot;endArrow&quot;:&quot;none&quot;,&quot;segment&quot;:10,&quot;curved&quot;:1,&quot;sourcePerimeterSpacing&quot;:0,&quot;targetPerimeterSpacing&quot;:0};fillColor=#f8cecc;strokeColor=#b85450;" vertex="1" collapsed="1" parent="1">
          <mxGeometry x="385" y="345" width="130" height="20" as="geometry" />
        </mxCell>
        <mxCell id="QBrUMATzq_8TdFM6rITS-42" value="" style="edgeStyle=entityRelationEdgeStyle;startArrow=none;endArrow=none;segment=10;curved=1;sourcePerimeterSpacing=0;targetPerimeterSpacing=0;rounded=0;exitX=1;exitY=0.5;exitDx=0;exitDy=0;" edge="1" parent="1" target="QBrUMATzq_8TdFM6rITS-41">
          <mxGeometry relative="1" as="geometry">
            <mxPoint x="350" y="380" as="sourcePoint" />
          </mxGeometry>
        </mxCell>
        <mxCell id="QBrUMATzq_8TdFM6rITS-43" value="Publish List" style="whiteSpace=wrap;html=1;rounded=1;arcSize=50;align=center;verticalAlign=middle;strokeWidth=1;autosize=1;spacing=4;treeFolding=1;treeMoving=1;newEdgeStyle={&quot;edgeStyle&quot;:&quot;entityRelationEdgeStyle&quot;,&quot;startArrow&quot;:&quot;none&quot;,&quot;endArrow&quot;:&quot;none&quot;,&quot;segment&quot;:10,&quot;curved&quot;:1,&quot;sourcePerimeterSpacing&quot;:0,&quot;targetPerimeterSpacing&quot;:0};fillColor=#f8cecc;strokeColor=#b85450;" vertex="1" collapsed="1" parent="1">
          <mxGeometry x="395" y="369" width="110" height="20" as="geometry" />
        </mxCell>
        <mxCell id="QBrUMATzq_8TdFM6rITS-44" value="" style="edgeStyle=entityRelationEdgeStyle;startArrow=none;endArrow=none;segment=10;curved=1;sourcePerimeterSpacing=0;targetPerimeterSpacing=0;rounded=0;exitX=1;exitY=0.5;exitDx=0;exitDy=0;" edge="1" parent="1" target="QBrUMATzq_8TdFM6rITS-43">
          <mxGeometry relative="1" as="geometry">
            <mxPoint x="350" y="380" as="sourcePoint" />
          </mxGeometry>
        </mxCell>
        <mxCell id="QBrUMATzq_8TdFM6rITS-45" value="Register &amp;amp; Sign" style="whiteSpace=wrap;html=1;rounded=1;arcSize=50;align=center;verticalAlign=middle;strokeWidth=1;autosize=1;spacing=4;treeFolding=1;treeMoving=1;newEdgeStyle={&quot;edgeStyle&quot;:&quot;entityRelationEdgeStyle&quot;,&quot;startArrow&quot;:&quot;none&quot;,&quot;endArrow&quot;:&quot;none&quot;,&quot;segment&quot;:10,&quot;curved&quot;:1,&quot;sourcePerimeterSpacing&quot;:0,&quot;targetPerimeterSpacing&quot;:0};fillColor=#f8cecc;strokeColor=#b85450;" vertex="1" collapsed="1" parent="1">
          <mxGeometry x="388" y="394" width="130" height="20" as="geometry" />
        </mxCell>
        <mxCell id="QBrUMATzq_8TdFM6rITS-46" value="" style="edgeStyle=entityRelationEdgeStyle;startArrow=none;endArrow=none;segment=10;curved=1;sourcePerimeterSpacing=0;targetPerimeterSpacing=0;rounded=0;exitX=1;exitY=0.5;exitDx=0;exitDy=0;" edge="1" parent="1" target="QBrUMATzq_8TdFM6rITS-45">
          <mxGeometry relative="1" as="geometry">
            <mxPoint x="350" y="380" as="sourcePoint" />
          </mxGeometry>
        </mxCell>
        <mxCell id="QBrUMATzq_8TdFM6rITS-47" value="name &amp;amp; likes" style="rounded=0;whiteSpace=wrap;html=1;fillColor=#d5e8d4;strokeColor=#82b366;" vertex="1" parent="1">
          <mxGeometry x="562" y="337.5" width="76" height="35" as="geometry" />
        </mxCell>
      </root>
    </mxGraphModel>
  </diagram>
</mxfile>
